<svg xmlns="http://www.w3.org/2000/svg" viewBox="0 0 955.844 955.844">
  <path d="M0 0h955.844v955.844H0z" style="fill:#000000"/>
  <path d="M258.103 266.922c-6.973-22.495-19.007-49.694-51.654-49.694-25.61 0-39.62 18.652-39.62 40.777 0 21.754 15.552 36.117 45.483 49.71l10.09 4.674c30.27 13.592 58.227 34.143 58.227 74.566 0 46.192-36.102 78.839-88.529 78.839-14.748 0-28.758-3.117-38.847-6.604-10.87-3.518-17.874-6.603-22.534-8.177-3.085-10.09-7.775-36.503-11.663-60.17l11.663-3.888c7.776 20.195 28.766 63.286 68.726 63.286 25.271 0 40.792-19.779 40.792-43.878 0-21.754-10.49-37.274-41.162-52.425l-12.436-6.203c-25.642-13.237-58.264-33.788-58.264-71.864 0-40.777 30.71-74.18 82.765-74.18 10.46 0 24.438 1.558 35.331 5.438 6.202 2.338 11.632 3.11 16.323 5.054 1.543 13.607 3.856 30.687 7.744 52.425l-12.435 2.314Zm255.747 7.775c-12.435-44.278-36.905-57.47-73.007-57.47-63.688 0-92.415 53.213-92.415 110.698 0 72.237 35.7 122.316 92.415 122.316 41.935 0 61.374-21.753 81.523-62.916l10.923 2.33c-4.658 18.652-13.237 49.725-19.439 64.49-10.861 3.1-45.853 11.649-73.007 11.649-101.765 0-142.927-66.404-142.927-127.778 0-81.554 62.916-136.324 149.9-136.324 33.419 0 59.03 7.775 69.892 10.09 3.147 21.769 4.658 38.848 7.004 61.358l-10.862 1.558Zm146.815-67.174V218.4c-28.757 2.33-31.874 5.415-31.874 47.38v52.025H746.85V265.78c0-41.965-3.086-45.05-32.616-47.38v-10.877h110.312V218.4c-31.072 2.33-34.188 5.415-34.188 47.38v135.924c0 41.934 3.116 45.081 33.417 47.396v10.861H711.148V449.1c32.615-2.315 35.7-5.462 35.7-47.396v-66.017H628.792v66.017c0 41.934 3.117 45.081 33.418 47.396v10.861H551.155V449.1c31.042-2.315 34.128-5.462 34.128-47.396V265.78c0-41.965-3.086-45.05-35.701-47.38v-10.877h111.083ZM308.206 501.684l67.545 184.892h.803c14.347-48.166 32.984-120.402 39.218-145.257 6.203-24.084 3.178-29.437-13.361-30.841-2.778-.23-13.423-1.003-13.423-1.003v-10.877h89.3v10.877c-25.242 2.33-28.328 4.675-40.762 39.605-5.832 16.307-33.418 97.105-65.632 205.073h-17.126L288.797 572.39h-.833l-60.572 181.762h-17.063l-64.09-206.616c-10.46-33.387-17.464-35.733-38.077-38.062v-10.877h104.882v10.877s-9.813.54-11.973.848c-13.977 1.914-18.73 4.66-12.867 24.778l45.05 151.475h.741l59.06-184.892h15.15Zm469.556 110.312v-.77c22.926-4.274 55.171-22.155 55.171-55.543 0-20.583-7.775-34.931-21.754-44.28-13.978-8.932-29.53-12.805-59.831-12.805H644.183v10.878c27.957 2.328 31.042 5.413 31.042 47.378V692.78c0 37.292-2.491 43.9-24.346 46.536-16.777-2.5-22.402-8.138-34.131-38.762-14.75-38.849-31.814-86.983-49.31-134.382l-26.043-70.21-15.983 1.503-78.747 203.089c-13.608 34.93-17.896 36.505-41.934 39.62v10.863h86.183v-10.864l-10.83-1.201c-17.095-1.913-20.212-6.975-13.207-27.54 5.4-16.309 12.404-38.063 17.433-49.727h71.897c8.146 20.212 17.464 44.279 21.322 55.928 4.69 14.767 3.888 18.655-10.862 20.968l-10.862 1.572v10.864h182.738c28.357 0 55.912-4.66 74.18-15.553 21.383-12.788 34.96-31.072 34.96-58.627 0-38.833-30.27-60.187-69.92-64.86ZM488.599 643.84l30.302-85.44h1.142l30.3 85.44H488.6Zm229.363-111.053c0-9.333 0-15.923 3.116-17.495 2.314-1.142 7.776-1.946 17.866-1.946 23.697 0 48.938 11.65 48.938 47.396 0 32.618-20.982 48.137-54.37 48.137h-15.55v-76.092Zm29.529 202.697c-24.87.804-29.53-6.972-29.53-43.478v-69.15h13.206c39.621 0 68.349 18.67 68.349 58.29 0 39.99-26.383 54.338-52.025 54.338Z" style="fill:#fff"/>
</svg>