<svg version="1" xmlns="http://www.w3.org/2000/svg" width="933.333" height="933.333" viewBox="0 0 700.000000 700.000000"><path d="M0 350v350h571l-9-12.3c-5-6.7-53.7-73.9-108.3-149.4-54.5-75.5-99.5-137.1-99.9-137-.4.1-19.9 25.6-43.3 56.7-45.5 60.5-52.1 68.1-63.7 73.8-12 5.9-16 6.4-52 6.9-18.1.3-32.8.2-32.8-.1 0-.3 32.6-44.5 72.5-98.3 39.8-53.8 72.4-98.1 72.2-98.5-.1-.4-29.4-40.4-65.2-88.9-35.7-48.5-65.4-88.8-65.8-89.6-.8-1.2 3.8-1.4 35.5-1.1 34.8.4 36.6.5 42.8 2.7 9.2 3.2 16.5 8 23.7 15.3 3.4 3.5 21.8 27.9 40.8 54.3 19 26.4 34.9 48.1 35.3 48.2.4.1 16.9-21.6 36.7-48.4 19.8-26.7 38.6-51.2 41.8-54.4 6.8-6.8 14.7-11.8 23.7-15 6.2-2.2 8-2.3 42.9-2.7 29.8-.3 36.2-.1 35.5 1-.5.7-30.5 41-66.7 89.6-36.2 48.6-65.7 88.9-65.5 89.7.2.7 59 81.4 130.8 179.4l130.5 178 18.3.1H700V0H0v350z"/></svg>